<svg id="Layer_1" data-name="Layer 1" xmlns="http://www.w3.org/2000/svg" width="64" height="64" viewBox="0 0 64 64"><defs><style>.cls-1{fill:#666;}</style></defs><title>filing_single</title><path id="filing_single" class="cls-1" d="M59.93,28.63a1.14,1.14,0,0,0-.06-0.11,1,1,0,0,0-.09-0.16l-10-12A1,1,0,0,0,49,16H13a1,1,0,0,0-.77.36l-10,12a1,1,0,0,0-.09.16,1.06,1.06,0,0,0-.07.11A1,1,0,0,0,2,29V49a1,1,0,0,0,1,1H59a1,1,0,0,0,1-1V29A1,1,0,0,0,59.93,28.63ZM13.47,18H48.53l8.33,10H39a1,1,0,0,0-1,1,7,7,0,0,1-14,0,1,1,0,0,0-1-1H5.14ZM4,48V30H22.06a9,9,0,0,0,17.89,0H58V48H4Z"/></svg>