<?xml version="1.0" encoding="UTF-8"?>
<svg width="19px" height="13px" viewBox="0 0 19 13" version="1.1" xmlns="http://www.w3.org/2000/svg" xmlns:xlink="http://www.w3.org/1999/xlink">
    <!-- Generator: Sketch 48.2 (47327) - http://www.bohemiancoding.com/sketch -->
    <title>Icon</title>
    <desc>Created with Sketch.</desc>
    <defs></defs>
    <g id="Map---Place" stroke="none" stroke-width="1" fill="none" fill-rule="evenodd" transform="translate(-314.000000, -385.000000)">
        <g id="Weather" transform="translate(311.000000, 378.000000)" fill="#000000">
            <path d="M20.7242076,17.1107025 C20.1896167,18.2489106 19.0443917,19.0360691 17.7212864,19.0360691 C17.679875,19.0360691 17.6386364,19.0352957 17.5975705,19.0337635 C17.5974553,19.0348141 17.5973258,19.0358502 17.5972106,19.0369008 L15.0405015,19.0369008 L9.30951136,19.0369008 L6.85275379,19.0369008 L6.85275379,19.0361274 C6.83835985,19.0364777 6.81676894,19.0367987 6.7983303,19.0367987 C5.22714545,19.0367987 3.94940985,17.7410801 3.94940985,16.1482308 C3.94940985,14.6425712 4.91885606,13.402406 6.37091667,13.2711472 C6.45500606,13.2635446 6.54021818,13.259663 6.62623636,13.259663 C6.64352348,13.259663 6.660825,13.2598235 6.67804015,13.2601299 C7.00761818,13.2661128 7.25494924,12.9616859 7.18487955,12.635137 C7.16338939,12.5350768 7.14577121,12.433572 7.13216894,12.330783 C7.10982955,12.1621677 7.09828561,11.9901086 7.09828561,11.8153791 C7.09828561,9.85427569 8.72396591,8.23142442 10.595178,7.99387455 C10.7535114,7.97413102 10.910722,7.96396011 11.0715167,7.96396011 C13.1667417,7.96396011 15.0152114,9.69126386 15.0152114,11.8153791 L15.0152114,11.8223105 C15.0151106,12.0839962 15.2245136,12.2960969 15.4826402,12.2952213 L15.4891174,12.2952067 L15.8489659,12.2952067 L15.9421091,12.2952067 L17.6731098,12.2952067 C17.6891447,12.2952067 17.7057841,12.2968119 17.720178,12.2968119 C19.5482083,12.2968119 21.0449045,13.8084252 21.0449045,15.6664332 C21.0449045,16.1830921 20.9301273,16.6729302 20.7242076,17.1107025 M17.7212864,11.3321076 L17.720178,11.3321076 L17.6663735,11.3321076 L15.9421667,11.3321076 C15.9567909,11.4780317 16.9851659,11.3515884 17.6353833,11.3328956 C16.9851659,11.351603 15.9567909,11.4780317 15.9421667,11.3321076 C15.7032992,8.90976726 13.529728,7 11.0715167,7 C10.9112689,7 10.7535114,7.00919322 10.595178,7.0249968 C8.20578409,7.26733298 6.1485447,9.32340376 6.1485447,11.8153791 C6.1485447,11.987088 6.15748333,12.1567102 6.17492879,12.3238224 C4.29178409,12.5507053 3,14.1789411 3,16.1482308 C3,18.2710327 4.70172348,19.9975193 6.79517803,19.9996498 L6.79517803,20 L6.79905,20 L17.720178,20 L17.720178,19.9989202 C19.5769962,19.9989202 21.1629348,18.7888298 21.7509848,17.1107025 C21.9091167,16.6583378 21.9952068,16.1718268 21.9952068,15.6655139 C21.9952068,13.27624 20.0780636,11.3321076 17.7212864,11.3321076" id="Icon"></path>
        </g>
    </g>
</svg>