<?xml version="1.0" encoding="UTF-8"?>
<svg width="28px" height="24px" viewBox="0 0 28 24" version="1.1" xmlns="http://www.w3.org/2000/svg" xmlns:xlink="http://www.w3.org/1999/xlink">
    <!-- Generator: Sketch 52.1 (67048) - http://www.bohemiancoding.com/sketch -->
    <title>Icon</title>
    <desc>Created with Sketch.</desc>
    <g id="Screens" stroke="none" stroke-width="1" fill="none" fill-rule="evenodd">
        <g id="Memories" transform="translate(-314.000000, -736.000000)" fill="#A1A1A1">
            <g id="UI-Bars-/-Tab-Bars-/-Base-/-Light-/-4-Text-Icons" transform="translate(0.000000, 729.000000)">
                <g id="#4" transform="translate(281.000000, 0.000000)">
                    <g id="Icon-4" transform="translate(33.000000, 7.000000)">
                        <path d="M26.5724592,6.35337154 C27.3617195,6.35337154 28,6.99510513 28,7.78734301 L28,22.5649834 C28,23.3572212 27.3617195,24 26.5724592,24 L1.42962329,24 C0.640362947,24 0,23.3572212 0,22.5649834 L0,7.78734301 C0,6.99510513 0.640362947,6.35337154 1.42962329,6.35337154 L26.5724592,6.35337154 Z M3.22597151,4.56414723 C2.79802164,4.56414723 2.45128854,4.21610605 2.45128854,3.78654171 C2.45128854,3.35802254 2.79802164,3.00998136 3.22597151,3.00998136 L24.8369194,3.00998136 C25.2648693,3.00998136 25.6105612,3.35802254 25.6105612,3.78654171 C25.6105612,4.21610605 25.2648693,4.56414723 24.8369194,4.56414723 L3.22597151,4.56414723 Z M5.09593544,1.55521104 C4.70963519,1.55521104 4.39518054,1.24061526 4.39518054,0.851812497 L4.39518054,0.70339854 C4.39518054,0.314595781 4.70963519,0 5.09593544,0 L22.6377152,0 C23.0240155,0 23.3384701,0.314595781 23.3384701,0.70339854 L23.3384701,0.851812497 C23.3384701,1.24061526 23.0240155,1.55521104 22.6377152,1.55521104 L5.09593544,1.55521104 Z" id="Icon"></path>
                    </g>
                </g>
            </g>
        </g>
    </g>
</svg>