<svg id="Layer_1" data-name="Layer 1" xmlns="http://www.w3.org/2000/svg" width="64" height="64" viewBox="0 0 64 64"><defs><style>.cls-1{fill:#666;}</style></defs><title>filing_double</title><path id="filing_double" class="cls-1" d="M57.93,18.63a1.14,1.14,0,0,0-.06-0.11,1,1,0,0,0-.09-0.16l-10-12A1,1,0,0,0,47,6H15a1,1,0,0,0-.77.36l-10,12a1,1,0,0,0-.09.16,1.06,1.06,0,0,0-.07.11A1,1,0,0,0,4,19V55a1,1,0,0,0,1,1H57a1,1,0,0,0,1-1V19A1,1,0,0,0,57.93,18.63ZM15.47,8H46.53l8.33,10H39a1,1,0,0,0-1,1,7,7,0,1,1-14,0,1,1,0,0,0-1-1H7.14ZM56,54H6V38H22.06a9,9,0,0,0,17.89,0H56V54ZM24.08,38H37.92A7,7,0,0,1,24.08,38ZM56,36H6V20H22.06a9,9,0,0,0,17.89,0H56V36Z"/></svg>