<?xml version="1.0" encoding="UTF-8"?>
<svg width="28px" height="26px" viewBox="0 0 28 26" version="1.1" xmlns="http://www.w3.org/2000/svg" xmlns:xlink="http://www.w3.org/1999/xlink">
    <!-- Generator: Sketch 52.1 (67048) - http://www.bohemiancoding.com/sketch -->
    <title>Memories</title>
    <desc>Created with Sketch.</desc>
    <g id="Screens" stroke="none" stroke-width="1" fill="none" fill-rule="evenodd">
        <g id="Memories" transform="translate(-127.000000, -735.000000)" fill="#007AFF">
            <g id="UI-Bars-/-Tab-Bars-/-Base-/-Light-/-4-Text-Icons" transform="translate(0.000000, 729.000000)">
                <g id="#2" transform="translate(94.000000, 0.000000)">
                    <g id="Icon-2" transform="translate(33.000000, 6.000000)">
                        <path d="M15.5547251,0.5 C22.417008,0.5 28,6.1075419 28,13 C28,19.8914605 22.417008,25.5 15.5547251,25.5 C12.7081044,25.5 9.92405765,24.5083799 7.71708232,22.7096967 C7.14895006,22.2448125 7.0615451,21.4028332 7.52340087,20.8322027 C7.98426341,20.2635674 8.82255646,20.1737829 9.3926752,20.6386672 C11.1507068,22.0732243 13.2821961,22.8314046 15.5547251,22.8314046 C20.9519816,22.8314046 25.3420945,18.4209896 25.3420945,13 C25.3420945,7.58000798 20.9519816,3.16959298 15.5547251,3.16959298 C10.5239735,3.16959298 6.30171786,7.08320032 5.8140379,12.0353152 L5.79218666,12.0343176 L5.73755855,12.3326018 L7.04366681,11.5774142 C7.58796136,11.2651636 8.27826192,11.4527135 8.59013872,11.995411 C8.90300876,12.5401038 8.71627997,13.2364326 8.17397191,13.5496808 L3.73618354,16.1165204 L0.274748348,12.0861931 C-0.13347256,11.6103352 -0.0808309342,10.8920591 0.392943696,10.4810455 C0.868704803,10.0710295 1.58482956,10.1239026 1.99205723,10.5997606 L3.11838937,11.9116121 L3.25446301,11.1624102 L3.25545624,11.1624102 C4.1404315,5.08599362 9.29335138,0.5 15.5547251,0.5 Z M13.7758355,17.54998 C13.665586,17.6118316 13.544411,17.6447526 13.4242291,17.6447526 C13.3000744,17.6447526 13.1769128,17.6118316 13.0646769,17.5459896 C12.844178,17.4163009 12.7110841,17.1848563 12.7110841,16.9264765 L12.7110841,9.07831205 C12.7110841,8.81993216 12.8451713,8.58848763 13.0666634,8.45879888 C13.2921284,8.32811253 13.5573231,8.32911014 13.7788152,8.45780128 L20.6162671,12.4103152 C20.8407389,12.5410016 20.9748261,12.7734437 20.9738328,13.0348164 C20.9728396,13.2941939 20.8377592,13.5266361 20.6122941,13.6543296 L13.7758355,17.54998 Z" id="Memories"></path>
                    </g>
                </g>
            </g>
        </g>
    </g>
</svg>