<?xml version="1.0" encoding="UTF-8"?>
<svg width="30px" height="23px" viewBox="0 0 30 23" version="1.1" xmlns="http://www.w3.org/2000/svg" xmlns:xlink="http://www.w3.org/1999/xlink">
    <!-- Generator: Sketch 52.1 (67048) - http://www.bohemiancoding.com/sketch -->
    <title>Combined Shape</title>
    <desc>Created with Sketch.</desc>
    <g id="Screens" stroke="none" stroke-width="1" fill="none" fill-rule="evenodd">
        <g id="Memories" transform="translate(-32.000000, -737.000000)" fill="#A1A1A1">
            <g id="UI-Bars-/-Tab-Bars-/-Base-/-Light-/-4-Text-Icons" transform="translate(0.000000, 729.000000)">
                <g id="#1">
                    <g id="Icon-1" transform="translate(32.000000, 8.000000)">
                        <path d="M28.6180507,4.36297589 C29.3812325,4.36297589 30,4.9776125 30,5.73699287 L30,21.1249342 C30,21.8843145 29.3812325,22.5 28.6180507,22.5 L6.15267851,22.5 C5.38949676,22.5 4.77072924,21.8843145 4.77072924,21.1249342 L4.77072924,5.73699287 C4.77072924,4.9776125 5.38949676,4.36297589 6.15267851,4.36297589 L28.6180507,4.36297589 Z M25.2282166,1.37506585 L25.2282166,2.82355245 L4.43256804,2.82355245 C3.66938629,2.82355245 3.05167289,3.43818905 3.05167289,4.19652056 L3.05167289,18.1370241 L1.38089516,18.1370241 C0.617713406,18.1370241 -1.77635684e-15,17.5234364 -1.77635684e-15,16.7630071 L-1.77635684e-15,1.37506585 C-1.77635684e-15,0.61568547 0.617713406,0 1.38089516,0 L23.8473215,0 C24.6094491,0 25.2282166,0.61568547 25.2282166,1.37506585 Z" id="Combined-Shape"></path>
                    </g>
                </g>
            </g>
        </g>
    </g>
</svg>