<?xml version="1.0" encoding="UTF-8"?>
<svg width="12px" height="15px" viewBox="0 0 12 15" version="1.1" xmlns="http://www.w3.org/2000/svg" xmlns:xlink="http://www.w3.org/1999/xlink">
    <!-- Generator: Sketch 52.1 (67048) - http://www.bohemiancoding.com/sketch -->
    <title>Today Icon</title>
    <desc>Created with Sketch.</desc>
    <g id="Screens" stroke="none" stroke-width="1" fill="none" fill-rule="evenodd">
        <g id="Reading-now" transform="translate(-24.000000, -341.000000)" fill="#A1A1A1">
            <g id="Group" transform="translate(20.000000, 340.000000)">
                <g id="icons">
                    <g id="#1">
                        <g id="Icon-3" transform="translate(4.000000, 1.000000)">
                            <path d="M11.0769231,13.3857836 L11.0769231,1.9475497 C11.0769231,1.56286327 10.7618462,1.2499809 10.3747692,1.2499809 L1.62553846,1.2499809 C1.23815385,1.2499809 0.923076923,1.56286327 0.923076923,1.9475497 L0.923076923,13.3857836 C0.923076923,13.7704701 1.23815385,14.0833524 1.62553846,14.0833524 L10.3747692,14.0833524 C10.7618462,14.0833524 11.0769231,13.7704701 11.0769231,13.3857836 Z M10.3747692,0.333333333 C11.2707692,0.333333333 12,1.05748491 12,1.9475497 L12,13.3857836 C12,14.2758484 11.2707692,15 10.3747692,15 L1.62553846,15 C0.729230769,15 0,14.2758484 0,13.3857836 L0,1.9475497 C0,1.05748491 0.729230769,0.333333333 1.62553846,0.333333333 L10.3747692,0.333333333 Z M1.84612308,13.0327521 L10.1538154,13.0327521 L10.1538154,4.78292397 L1.84612308,4.78292397 L1.84612308,13.0327521 Z M2.30769231,3.23672285 L6,3.23672285 C6.25507692,3.23672285 6.46153846,3.03169934 6.46153846,2.77839906 C6.46153846,2.52509878 6.25507692,2.32007528 6,2.32007528 L2.30769231,2.32007528 C2.05261538,2.32007528 1.84615385,2.52509878 1.84615385,2.77839906 C1.84615385,3.03169934 2.05261538,3.23672285 2.30769231,3.23672285 Z" id="Today-Icon"></path>
                        </g>
                    </g>
                </g>
            </g>
        </g>
    </g>
</svg>