<?xml version="1.0" encoding="UTF-8"?>
<svg width="24px" height="24px" viewBox="0 0 24 24" version="1.1" xmlns="http://www.w3.org/2000/svg" xmlns:xlink="http://www.w3.org/1999/xlink">
    <!-- Generator: Sketch 48.2 (47327) - http://www.bohemiancoding.com/sketch -->
    <title>Icon</title>
    <desc>Created with Sketch.</desc>
    <defs></defs>
    <g id="Map---Place" stroke="none" stroke-width="1" fill="none" fill-rule="evenodd" transform="translate(-335.000000, -462.000000)" fill-opacity="0.5">
        <g id="Info" transform="translate(0.000000, 445.000000)" fill="#666666">
            <g transform="translate(0.000000, 17.000000)" id="Icon">
                <path d="M347,24 C340.372583,24 335,18.627417 335,12 C335,5.372583 340.372583,0 347,0 C353.627417,0 359,5.372583 359,12 C359,18.627417 353.627417,24 347,24 Z M348.574583,11.8775272 L351.400046,9.05206493 C351.874153,8.57795752 351.87164,7.82067296 351.403011,7.35204381 C350.931114,6.88014746 350.173256,6.88474206 349.702989,7.35500865 L346.877527,10.1804709 L344.052065,7.35500865 C343.577958,6.88090125 342.820673,6.88341466 342.352044,7.35204381 C341.880147,7.82394015 341.884742,8.58179834 342.355009,9.05206493 L345.180471,11.8775272 L342.355009,14.7029895 C341.880901,15.1770969 341.883415,15.9343815 342.352044,16.4030106 C342.82394,16.874907 343.581798,16.8703123 344.052065,16.4000458 L346.877527,13.5745835 L349.702989,16.4000458 C350.177097,16.8741532 350.934381,16.8716398 351.403011,16.4030106 C351.874907,15.9311143 351.870312,15.1732561 351.400046,14.7029895 L348.574583,11.8775272 Z"></path>
            </g>
        </g>
    </g>
</svg>