<?xml version="1.0" encoding="UTF-8"?>
<svg width="18px" height="31px" viewBox="0 0 18 31" version="1.1" xmlns="http://www.w3.org/2000/svg" xmlns:xlink="http://www.w3.org/1999/xlink">
    <!-- Generator: Sketch 48.2 (47327) - http://www.bohemiancoding.com/sketch -->
    <title>Food Icon</title>
    <desc>Created with Sketch.</desc>
    <defs></defs>
    <g id="Map---Place" stroke="none" stroke-width="1" fill="none" fill-rule="evenodd" transform="translate(-179.000000, -223.000000)">
        <g id="Pin" transform="translate(158.000000, 206.000000)" fill="#FFFFFF">
            <path d="M26.4549754,24.0495464 L26.4549754,25.7483747 C26.4549754,26.1672821 26.7907619,26.5 27.2049754,26.5 C27.6220768,26.5 27.9549754,26.1634859 27.9549754,25.7483747 L27.9549754,24.3749727 C27.9870146,24.386234 28.0187707,24.3977439 28.0502373,24.4095029 L28.0502373,17 L28.5748645,17 C29.1083008,17 29.5733508,17.4391574 29.6018628,17.9808854 L29.9986117,25.5191146 C30.0086171,25.7092179 29.9652779,25.8854672 29.881885,26.0345974 C29.9591418,26.2558111 30,26.4943895 30,26.75 C30,28.1459499 28.6755642,30.2436146 27,31.1071798 L27,46.501738 C27,47.3292053 26.3342028,48 25.5,48 C24.6715729,48 24,47.3196348 24,46.501738 L24,31.1071798 C22.3244358,30.2436146 21,28.1459499 21,26.75 C21,26.4722432 21.0482448,26.2145977 21.1390126,25.9774903 C21.0749678,25.8412357 21.0428695,25.6854802 21.0516255,25.5191146 L21.4483745,17.9808854 C21.4768865,17.4391574 21.9419365,17 22.4753728,17 L23,17 L23,24.3910297 L23,25.7483747 C23,26.1672821 23.3357864,26.5 23.75,26.5 C24.1671014,26.5 24.5,26.1634859 24.5,25.7483747 L24.5,24.0544911 C24.5264922,24.0515075 24.5530731,24.0486453 24.5797406,24.0459051 L24.7200311,17.9689941 C24.7323857,17.4338335 25.1796124,17 25.7264897,17 L25.2984126,17 C25.8419097,17 26.29157,17.4378039 26.3025731,17.9689941 L26.4284689,24.0467528 C26.437314,24.0476706 26.4461495,24.0486018 26.4549754,24.0495465 Z M39,46.503683 C39,47.3300761 38.3125,48 37.5,48 C36.9375,48 36.25,47.3305329 36,46.5969818 L36,35.5969818 C34.6026856,34.3021248 33.5740051,32.0458983 33.5,30.5 C33.5740051,26.4775389 34.0008556,23.1802013 34.7749634,21.2258301 C36.0450928,18.019165 37.0547353,17.2933224 37.0547353,17.2933224 C37.8253187,16.8551825 39,17.1762201 39,17.9988299 L39,35.5 L39,46.503683 Z" id="Food-Icon"></path>
        </g>
    </g>
</svg>