<?xml version="1.0" encoding="UTF-8"?>
<svg width="219px" height="43px" viewBox="0 0 219 43" version="1.1" xmlns="http://www.w3.org/2000/svg" xmlns:xlink="http://www.w3.org/1999/xlink">
    <!-- Generator: Sketch 52.1 (67048) - http://www.bohemiancoding.com/sketch -->
    <title>Statistics</title>
    <desc>Created with Sketch.</desc>
    <g id="Screens" stroke="none" stroke-width="1" fill="none" fill-rule="evenodd">
        <g id="Reading-now" transform="translate(-136.000000, -534.000000)">
            <g id="Ratings-&amp;-Reviews" transform="translate(20.000000, 490.000000)">
                <g id="Statistics" transform="translate(116.000000, 44.000000)">
                    <g id="Rating-1" transform="translate(32.000000, 35.000000)">
                        <path d="M20.5,3 L186,3 C186.552285,3 187,3.44771525 187,4 L187,4.5 C187,5.05228475 186.552285,5.5 186,5.5 L20.5,5.5 C19.9477153,5.5 19.5,5.05228475 19.5,4.5 L19.5,4 C19.5,3.44771525 19.9477153,3 20.5,3 Z" id="Rectangle" fill="#EFEFF4"></path>
                        <path d="M2.6595775,4.77921154 L0.481955871,3.28834413 L3.1122874,3.32326732 L3.99015143,0.5 L4.932997,3.34744107 L7.5125663,3.38169028 L5.442435,4.75001773 L6.37265257,7.32129808 L6.21252061,7.21166676 L6.26391143,7.36686962 L6.27156449,7.38998225 L3.99015147,5.75987482 L1.81357815,7.5 L2.6595775,4.77921154 Z" id="Star-Icon" fill="#85858A"></path>
                    </g>
                    <g id="Rating-2" transform="translate(24.000000, 26.500000)">
                        <path d="M28.5,2.5 L194,2.5 C194.552285,2.5 195,2.94771525 195,3.5 L195,4 C195,4.55228475 194.552285,5 194,5 L28.5,5 C27.9477153,5 27.5,4.55228475 27.5,4 L27.5,3.5 C27.5,2.94771525 27.9477153,2.5 28.5,2.5 Z" id="Rectangle" fill="#EFEFF4"></path>
                        <path d="M10.6595775,4.77921154 L8.48195587,3.28834413 L11.1122874,3.32326732 L11.9901514,0.5 L12.932997,3.34744107 L15.5125663,3.38169028 L13.442435,4.75001773 L14.3726526,7.32129808 L14.2125206,7.21166676 L14.2639114,7.36686962 L14.2715645,7.38998225 L11.9901515,5.75987482 L9.81357815,7.5 L10.6595775,4.77921154 Z" id="Star-Icon" fill="#86858B"></path>
                        <path d="M2.6595775,4.77921154 L0.481955871,3.28834413 L3.1122874,3.32326732 L3.99015143,0.5 L4.932997,3.34744107 L7.5125663,3.38169028 L5.442435,4.75001773 L6.37265257,7.32129808 L6.21252061,7.21166676 L6.26391143,7.36686962 L6.27156449,7.38998225 L3.99015147,5.75987482 L1.81357815,7.5 L2.6595775,4.77921154 Z" id="Star-Icon" fill="#86858B"></path>
                    </g>
                    <g id="Rating-3" transform="translate(16.000000, 17.500000)">
                        <path d="M18.6595775,4.77921154 L16.4819559,3.28834413 L19.1122874,3.32326732 L19.9901514,0.5 L20.932997,3.34744107 L23.5125663,3.38169028 L21.442435,4.75001773 L22.3726526,7.32129808 L22.2125206,7.21166676 L22.2639114,7.36686962 L22.2715645,7.38998225 L19.9901515,5.75987482 L17.8135782,7.5 L18.6595775,4.77921154 Z" id="Star-Icon" fill="#86858B"></path>
                        <path d="M36.5,3 L202,3 C202.552285,3 203,3.44771525 203,4 L203,4.5 C203,5.05228475 202.552285,5.5 202,5.5 L36.5,5.5 C35.9477153,5.5 35.5,5.05228475 35.5,4.5 L35.5,4 C35.5,3.44771525 35.9477153,3 36.5,3 Z" id="Rectangle" fill="#EFEFF4"></path>
                        <path d="M36.5,3 L48,3 L48,5.5 L36.5,5.5 C35.9477153,5.5 35.5,5.05228475 35.5,4.5 L35.5,4 C35.5,3.44771525 35.9477153,3 36.5,3 Z" id="Rectangle" fill="#85848A"></path>
                        <path d="M10.6595775,4.77921154 L8.48195587,3.28834413 L11.1122874,3.32326732 L11.9901514,0.5 L12.932997,3.34744107 L15.5125663,3.38169028 L13.442435,4.75001773 L14.3726526,7.32129808 L14.2125206,7.21166676 L14.2639114,7.36686962 L14.2715645,7.38998225 L11.9901515,5.75987482 L9.81357815,7.5 L10.6595775,4.77921154 Z" id="Star-Icon" fill="#86858B"></path>
                        <path d="M2.6595775,4.77921154 L0.481955871,3.28834413 L3.1122874,3.32326732 L3.99015143,0.5 L4.932997,3.34744107 L7.5125663,3.38169028 L5.442435,4.75001773 L6.37265257,7.32129808 L6.21252061,7.21166676 L6.26391143,7.36686962 L6.27156449,7.38998225 L3.99015147,5.75987482 L1.81357815,7.5 L2.6595775,4.77921154 Z" id="Star-Icon" fill="#86858B"></path>
                    </g>
                    <g id="Rating-4" transform="translate(8.000000, 8.500000)">
                        <path d="M26.6595775,4.77921154 L24.4819559,3.28834413 L27.1122874,3.32326732 L27.9901514,0.5 L28.932997,3.34744107 L31.5125663,3.38169028 L29.442435,4.75001773 L30.3726526,7.32129808 L30.2125206,7.21166676 L30.2639114,7.36686962 L30.2715645,7.38998225 L27.9901515,5.75987482 L25.8135782,7.5 L26.6595775,4.77921154 Z" id="Star-Icon" fill="#85848A"></path>
                        <path d="M44.5,3 L210,3 C210.552285,3 211,3.44771525 211,4 L211,4.5 C211,5.05228475 210.552285,5.5 210,5.5 L44.5,5.5 C43.9477153,5.5 43.5,5.05228475 43.5,4.5 L43.5,4 C43.5,3.44771525 43.9477153,3 44.5,3 Z" id="Rectangle" fill="#EFEFF4"></path>
                        <path d="M44.5,3 L56,3 L56,5.5 L44.5,5.5 C43.9477153,5.5 43.5,5.05228475 43.5,4.5 L43.5,4 C43.5,3.44771525 43.9477153,3 44.5,3 Z" id="Rectangle" fill="#85848A"></path>
                        <path d="M18.6595775,4.77921154 L16.4819559,3.28834413 L19.1122874,3.32326732 L19.9901514,0.5 L20.932997,3.34744107 L23.5125663,3.38169028 L21.442435,4.75001773 L22.3726526,7.32129808 L22.2125206,7.21166676 L22.2639114,7.36686962 L22.2715645,7.38998225 L19.9901515,5.75987482 L17.8135782,7.5 L18.6595775,4.77921154 Z" id="Star-Icon" fill="#85848A"></path>
                        <path d="M10.6595775,4.77921154 L8.48195587,3.28834413 L11.1122874,3.32326732 L11.9901514,0.5 L12.932997,3.34744107 L15.5125663,3.38169028 L13.442435,4.75001773 L14.3726526,7.32129808 L14.2125206,7.21166676 L14.2639114,7.36686962 L14.2715645,7.38998225 L11.9901515,5.75987482 L9.81357815,7.5 L10.6595775,4.77921154 Z" id="Star-Icon" fill="#85848A"></path>
                        <path d="M2.6595775,4.77921154 L0.481955871,3.28834413 L3.1122874,3.32326732 L3.99015143,0.5 L4.932997,3.34744107 L7.5125663,3.38169028 L5.442435,4.75001773 L6.37265257,7.32129808 L6.21252061,7.21166676 L6.26391143,7.36686962 L6.27156449,7.38998225 L3.99015147,5.75987482 L1.81357815,7.5 L2.6595775,4.77921154 Z" id="Star-Icon" fill="#85848A"></path>
                    </g>
                    <g id="Rating-5">
                        <path d="M52.5,2.5 L218,2.5 C218.552285,2.5 219,2.94771525 219,3.5 L219,4 C219,4.55228475 218.552285,5 218,5 L52.5,5 C51.9477153,5 51.5,4.55228475 51.5,4 L51.5,3.5 C51.5,2.94771525 51.9477153,2.5 52.5,2.5 Z" id="Rectangle" fill="#EFEFF4"></path>
                        <path d="M52.5,2.5 L192.5,2.5 L192.5,5 L52.5,5 C51.9477153,5 51.5,4.55228475 51.5,4 L51.5,3.5 C51.5,2.94771525 51.9477153,2.5 52.5,2.5 Z" id="Rectangle" fill="#85848A"></path>
                        <path d="M34.6595775,4.77921154 L32.4819559,3.28834413 L35.1122874,3.32326732 L35.9901514,0.5 L36.932997,3.34744107 L39.5125663,3.38169028 L37.442435,4.75001773 L38.3726526,7.32129808 L38.2125206,7.21166676 L38.2639114,7.36686962 L38.2715645,7.38998225 L35.9901515,5.75987482 L33.8135782,7.5 L34.6595775,4.77921154 Z" id="Star-Icon" fill="#85848A"></path>
                        <path d="M26.6595775,4.77921154 L24.4819559,3.28834413 L27.1122874,3.32326732 L27.9901514,0.5 L28.932997,3.34744107 L31.5125663,3.38169028 L29.442435,4.75001773 L30.3726526,7.32129808 L30.2125206,7.21166676 L30.2639114,7.36686962 L30.2715645,7.38998225 L27.9901515,5.75987482 L25.8135782,7.5 L26.6595775,4.77921154 Z" id="Star-Icon" fill="#85848A"></path>
                        <path d="M18.6595775,4.77921154 L16.4819559,3.28834413 L19.1122874,3.32326732 L19.9901514,0.5 L20.932997,3.34744107 L23.5125663,3.38169028 L21.442435,4.75001773 L22.3726526,7.32129808 L22.2125206,7.21166676 L22.2639114,7.36686962 L22.2715645,7.38998225 L19.9901515,5.75987482 L17.8135782,7.5 L18.6595775,4.77921154 Z" id="Star-Icon" fill="#85848A"></path>
                        <path d="M10.6595775,4.77921154 L8.48195587,3.28834413 L11.1122874,3.32326732 L11.9901514,0.5 L12.932997,3.34744107 L15.5125663,3.38169028 L13.442435,4.75001773 L14.3726526,7.32129808 L14.2125206,7.21166676 L14.2639114,7.36686962 L14.2715645,7.38998225 L11.9901515,5.75987482 L9.81357815,7.5 L10.6595775,4.77921154 Z" id="Star-Icon" fill="#85848A"></path>
                        <path d="M2.6595775,4.77921154 L0.481955871,3.28834413 L3.1122874,3.32326732 L3.99015143,0.5 L4.932997,3.34744107 L7.5125663,3.38169028 L5.442435,4.75001773 L6.37265257,7.32129808 L6.21252061,7.21166676 L6.26391143,7.36686962 L6.27156449,7.38998225 L3.99015147,5.75987482 L1.81357815,7.5 L2.6595775,4.77921154 Z" id="Star-Icon" fill="#85848A"></path>
                    </g>
                </g>
            </g>
        </g>
    </g>
</svg>