<?xml version="1.0" encoding="UTF-8"?>
<svg width="15px" height="15px" viewBox="0 0 15 15" version="1.1" xmlns="http://www.w3.org/2000/svg" xmlns:xlink="http://www.w3.org/1999/xlink">
    <!-- Generator: Sketch 52.1 (67048) - http://www.bohemiancoding.com/sketch -->
    <title>Apps Icon</title>
    <desc>Created with Sketch.</desc>
    <g id="Screens" stroke="none" stroke-width="1" fill="none" fill-rule="evenodd">
        <g id="Reading-now" transform="translate(-230.000000, -341.000000)" fill="#A1A1A1">
            <g id="Group" transform="translate(20.000000, 340.000000)">
                <g id="icons">
                    <g id="#3" transform="translate(208.000000, 0.000000)">
                        <g id="Icon-3" transform="translate(2.000000, 1.000000)">
                            <path d="M0.990581353,4.28897089 C0.768122098,4.17540632 0.661353963,3.9463469 0.666892367,3.71986118 C0.661046274,3.49080176 0.768737476,3.25916864 0.993658244,3.14463893 C0.993658244,3.14463893 4.69208182,1.31248529 6.60129299,0.545522293 C7.3126703,0.259841445 8.09512381,0.262736859 8.80465499,0.55356511 L14.342752,3.15075147 C14.5652112,3.26431604 14.6719794,3.49337546 14.666441,3.71953947 C14.6722871,3.9489206 14.5645959,4.18055372 14.3393674,4.29508343 C14.3393674,4.29508343 10.6412515,6.12723707 8.73204035,6.89420007 C8.02066304,7.17988091 7.23820953,7.17666379 6.52867835,6.88615725 L0.990581353,4.28897089 Z M14.342752,7.09761669 C14.5652112,7.21118126 14.6719794,7.44024068 14.666441,7.6667264 C14.6722871,7.89578582 14.5645959,8.12741894 14.3393674,8.24194865 C14.3393674,8.24194865 10.6412515,10.0741023 8.73204035,10.8410653 C8.02066304,11.1267461 7.23820953,11.123529 6.52867835,10.8330225 L0.990581353,8.23583611 C0.768122098,8.12227154 0.661353963,7.89321212 0.666892367,7.66704811 C0.661046274,7.43766698 0.768737476,7.20603386 0.993658244,7.09150415 C0.993658244,7.09150415 1.47642252,6.85247164 2.18133836,6.51177793 L6.52867835,8.5504711 C7.23820953,8.84097764 8.02066304,8.84419476 8.73204035,8.55851391 C9.95233551,8.06822381 11.902777,7.14329989 13.151995,6.53944522 L14.342752,7.09761669 Z M14.342752,11.0444819 C14.5652112,11.1580465 14.6719794,11.3871059 14.666441,11.6135916 C14.6722871,11.842651 14.5645959,12.0742842 14.3393674,12.1888139 C14.3393674,12.1888139 10.6412515,14.0209675 8.73204035,14.7879305 C8.02066304,15.0736114 7.23820953,15.0703942 6.52867835,14.7798877 L0.990581353,12.1827013 C0.768122098,12.0691368 0.661353963,11.8400773 0.666892367,11.6139133 C0.661046274,11.3845322 0.768737476,11.1528991 0.993658244,11.0383694 C0.993658244,11.0383694 1.47642252,10.7993369 2.18133836,10.4586431 L6.52867835,12.4973363 C7.23820953,12.7878429 8.02066304,12.79106 8.73204035,12.5057008 C9.95233551,12.015089 11.902777,11.0901651 13.151995,10.4863104 L14.342752,11.0444819 Z" id="Apps-Icon"></path>
                        </g>
                    </g>
                </g>
            </g>
        </g>
    </g>
</svg>